<mxfile host="app.diagrams.net" modified="2024-01-19T15:16:16.072Z" agent="Mozilla/5.0 (Windows NT 10.0; Win64; x64) AppleWebKit/537.36 (KHTML, like Gecko) Chrome/120.0.0.0 Safari/537.36 OPR/106.0.0.0 (Edition Yx 05)" etag="kTeM0wRdgvBNeSVb6NmD" version="22.1.18" type="device">
  <diagram id="C5RBs43oDa-KdzZeNtuy" name="Page-1">
    <mxGraphModel dx="1380" dy="775" grid="1" gridSize="10" guides="1" tooltips="1" connect="1" arrows="1" fold="1" page="1" pageScale="1" pageWidth="827" pageHeight="1169" math="0" shadow="0">
      <root>
        <mxCell id="WIyWlLk6GJQsqaUBKTNV-0" />
        <mxCell id="WIyWlLk6GJQsqaUBKTNV-1" parent="WIyWlLk6GJQsqaUBKTNV-0" />
        <mxCell id="j8icnlEW-QXCDjUIzJ-q-5" value="" style="edgeStyle=orthogonalEdgeStyle;rounded=0;orthogonalLoop=1;jettySize=auto;html=1;" edge="1" parent="WIyWlLk6GJQsqaUBKTNV-1" source="j8icnlEW-QXCDjUIzJ-q-1" target="j8icnlEW-QXCDjUIzJ-q-4">
          <mxGeometry relative="1" as="geometry" />
        </mxCell>
        <mxCell id="j8icnlEW-QXCDjUIzJ-q-1" value="запросить login" style="shape=parallelogram;perimeter=parallelogramPerimeter;whiteSpace=wrap;html=1;fixedSize=1;" vertex="1" parent="WIyWlLk6GJQsqaUBKTNV-1">
          <mxGeometry x="338" y="110" width="200" height="60" as="geometry" />
        </mxCell>
        <mxCell id="j8icnlEW-QXCDjUIzJ-q-3" value="" style="edgeStyle=orthogonalEdgeStyle;rounded=0;orthogonalLoop=1;jettySize=auto;html=1;" edge="1" parent="WIyWlLk6GJQsqaUBKTNV-1" source="j8icnlEW-QXCDjUIzJ-q-2" target="j8icnlEW-QXCDjUIzJ-q-1">
          <mxGeometry relative="1" as="geometry" />
        </mxCell>
        <mxCell id="j8icnlEW-QXCDjUIzJ-q-2" value="Начало" style="ellipse;whiteSpace=wrap;html=1;" vertex="1" parent="WIyWlLk6GJQsqaUBKTNV-1">
          <mxGeometry x="378" y="30" width="120" height="50" as="geometry" />
        </mxCell>
        <mxCell id="j8icnlEW-QXCDjUIzJ-q-7" value="" style="edgeStyle=orthogonalEdgeStyle;rounded=0;orthogonalLoop=1;jettySize=auto;html=1;" edge="1" parent="WIyWlLk6GJQsqaUBKTNV-1" source="j8icnlEW-QXCDjUIzJ-q-4" target="j8icnlEW-QXCDjUIzJ-q-6">
          <mxGeometry relative="1" as="geometry" />
        </mxCell>
        <mxCell id="j8icnlEW-QXCDjUIzJ-q-4" value="Получить login" style="shape=parallelogram;perimeter=parallelogramPerimeter;whiteSpace=wrap;html=1;fixedSize=1;" vertex="1" parent="WIyWlLk6GJQsqaUBKTNV-1">
          <mxGeometry x="338" y="200" width="200" height="60" as="geometry" />
        </mxCell>
        <mxCell id="j8icnlEW-QXCDjUIzJ-q-13" value="" style="edgeStyle=orthogonalEdgeStyle;rounded=0;orthogonalLoop=1;jettySize=auto;html=1;" edge="1" parent="WIyWlLk6GJQsqaUBKTNV-1" source="j8icnlEW-QXCDjUIzJ-q-6" target="j8icnlEW-QXCDjUIzJ-q-12">
          <mxGeometry relative="1" as="geometry" />
        </mxCell>
        <mxCell id="j8icnlEW-QXCDjUIzJ-q-27" style="edgeStyle=orthogonalEdgeStyle;rounded=0;orthogonalLoop=1;jettySize=auto;html=1;" edge="1" parent="WIyWlLk6GJQsqaUBKTNV-1" source="j8icnlEW-QXCDjUIzJ-q-6" target="j8icnlEW-QXCDjUIzJ-q-26">
          <mxGeometry relative="1" as="geometry" />
        </mxCell>
        <mxCell id="j8icnlEW-QXCDjUIzJ-q-6" value="Login не пустой" style="rhombus;whiteSpace=wrap;html=1;" vertex="1" parent="WIyWlLk6GJQsqaUBKTNV-1">
          <mxGeometry x="333" y="310" width="210" height="80" as="geometry" />
        </mxCell>
        <mxCell id="j8icnlEW-QXCDjUIzJ-q-35" style="edgeStyle=orthogonalEdgeStyle;rounded=0;orthogonalLoop=1;jettySize=auto;html=1;entryX=1;entryY=0.5;entryDx=0;entryDy=0;" edge="1" parent="WIyWlLk6GJQsqaUBKTNV-1" source="j8icnlEW-QXCDjUIzJ-q-12" target="j8icnlEW-QXCDjUIzJ-q-33">
          <mxGeometry relative="1" as="geometry">
            <Array as="points">
              <mxPoint x="644" y="440" />
            </Array>
          </mxGeometry>
        </mxCell>
        <mxCell id="j8icnlEW-QXCDjUIzJ-q-12" value="Получить список пользователей" style="whiteSpace=wrap;html=1;" vertex="1" parent="WIyWlLk6GJQsqaUBKTNV-1">
          <mxGeometry x="594" y="320" width="120" height="60" as="geometry" />
        </mxCell>
        <mxCell id="j8icnlEW-QXCDjUIzJ-q-25" style="edgeStyle=orthogonalEdgeStyle;rounded=0;orthogonalLoop=1;jettySize=auto;html=1;" edge="1" parent="WIyWlLk6GJQsqaUBKTNV-1" source="j8icnlEW-QXCDjUIzJ-q-18" target="j8icnlEW-QXCDjUIzJ-q-22">
          <mxGeometry relative="1" as="geometry">
            <Array as="points">
              <mxPoint x="659" y="690" />
              <mxPoint x="659" y="751" />
              <mxPoint x="443" y="751" />
            </Array>
          </mxGeometry>
        </mxCell>
        <mxCell id="j8icnlEW-QXCDjUIzJ-q-45" style="edgeStyle=orthogonalEdgeStyle;rounded=0;orthogonalLoop=1;jettySize=auto;html=1;" edge="1" parent="WIyWlLk6GJQsqaUBKTNV-1" source="j8icnlEW-QXCDjUIzJ-q-18" target="j8icnlEW-QXCDjUIzJ-q-20">
          <mxGeometry relative="1" as="geometry" />
        </mxCell>
        <mxCell id="j8icnlEW-QXCDjUIzJ-q-18" value="IsPremum" style="rhombus;whiteSpace=wrap;html=1;" vertex="1" parent="WIyWlLk6GJQsqaUBKTNV-1">
          <mxGeometry x="343" y="660" width="190" height="80" as="geometry" />
        </mxCell>
        <mxCell id="j8icnlEW-QXCDjUIzJ-q-46" style="edgeStyle=orthogonalEdgeStyle;rounded=0;orthogonalLoop=1;jettySize=auto;html=1;" edge="1" parent="WIyWlLk6GJQsqaUBKTNV-1" source="j8icnlEW-QXCDjUIzJ-q-20" target="j8icnlEW-QXCDjUIzJ-q-22">
          <mxGeometry relative="1" as="geometry">
            <Array as="points">
              <mxPoint x="229" y="751" />
              <mxPoint x="443" y="751" />
            </Array>
          </mxGeometry>
        </mxCell>
        <mxCell id="j8icnlEW-QXCDjUIzJ-q-20" value="Закидываем спамом&lt;br&gt;ShowAdds()" style="shape=parallelogram;perimeter=parallelogramPerimeter;whiteSpace=wrap;html=1;fixedSize=1;" vertex="1" parent="WIyWlLk6GJQsqaUBKTNV-1">
          <mxGeometry x="110" y="670" width="179" height="60" as="geometry" />
        </mxCell>
        <mxCell id="j8icnlEW-QXCDjUIzJ-q-32" style="edgeStyle=orthogonalEdgeStyle;rounded=0;orthogonalLoop=1;jettySize=auto;html=1;" edge="1" parent="WIyWlLk6GJQsqaUBKTNV-1" source="j8icnlEW-QXCDjUIzJ-q-22" target="j8icnlEW-QXCDjUIzJ-q-31">
          <mxGeometry relative="1" as="geometry" />
        </mxCell>
        <mxCell id="j8icnlEW-QXCDjUIzJ-q-22" value="Привет Name" style="shape=parallelogram;perimeter=parallelogramPerimeter;whiteSpace=wrap;html=1;fixedSize=1;" vertex="1" parent="WIyWlLk6GJQsqaUBKTNV-1">
          <mxGeometry x="328" y="800" width="230" height="60" as="geometry" />
        </mxCell>
        <mxCell id="j8icnlEW-QXCDjUIzJ-q-28" style="edgeStyle=orthogonalEdgeStyle;rounded=0;orthogonalLoop=1;jettySize=auto;html=1;entryX=0;entryY=0.5;entryDx=0;entryDy=0;" edge="1" parent="WIyWlLk6GJQsqaUBKTNV-1" source="j8icnlEW-QXCDjUIzJ-q-26" target="j8icnlEW-QXCDjUIzJ-q-1">
          <mxGeometry relative="1" as="geometry">
            <Array as="points">
              <mxPoint x="224" y="140" />
            </Array>
          </mxGeometry>
        </mxCell>
        <mxCell id="j8icnlEW-QXCDjUIzJ-q-26" value="Сообщить, что логин пустой" style="shape=parallelogram;perimeter=parallelogramPerimeter;whiteSpace=wrap;html=1;fixedSize=1;" vertex="1" parent="WIyWlLk6GJQsqaUBKTNV-1">
          <mxGeometry x="114" y="320" width="190" height="60" as="geometry" />
        </mxCell>
        <mxCell id="j8icnlEW-QXCDjUIzJ-q-31" value="Конец" style="ellipse;whiteSpace=wrap;html=1;" vertex="1" parent="WIyWlLk6GJQsqaUBKTNV-1">
          <mxGeometry x="383" y="910" width="120" height="51" as="geometry" />
        </mxCell>
        <mxCell id="j8icnlEW-QXCDjUIzJ-q-49" style="edgeStyle=orthogonalEdgeStyle;rounded=0;orthogonalLoop=1;jettySize=auto;html=1;" edge="1" parent="WIyWlLk6GJQsqaUBKTNV-1" source="j8icnlEW-QXCDjUIzJ-q-33" target="j8icnlEW-QXCDjUIzJ-q-38">
          <mxGeometry relative="1" as="geometry" />
        </mxCell>
        <mxCell id="j8icnlEW-QXCDjUIzJ-q-33" value="Пробуем получить пользователя по логину.&lt;br&gt;Select.Where(a=&amp;gt;a.Login == login).FirstOrDefault()" style="rounded=0;whiteSpace=wrap;html=1;" vertex="1" parent="WIyWlLk6GJQsqaUBKTNV-1">
          <mxGeometry x="353" y="410" width="170" height="90" as="geometry" />
        </mxCell>
        <mxCell id="j8icnlEW-QXCDjUIzJ-q-43" style="edgeStyle=orthogonalEdgeStyle;rounded=0;orthogonalLoop=1;jettySize=auto;html=1;" edge="1" parent="WIyWlLk6GJQsqaUBKTNV-1" source="j8icnlEW-QXCDjUIzJ-q-38" target="j8icnlEW-QXCDjUIzJ-q-42">
          <mxGeometry relative="1" as="geometry" />
        </mxCell>
        <mxCell id="j8icnlEW-QXCDjUIzJ-q-48" style="edgeStyle=orthogonalEdgeStyle;rounded=0;orthogonalLoop=1;jettySize=auto;html=1;" edge="1" parent="WIyWlLk6GJQsqaUBKTNV-1" source="j8icnlEW-QXCDjUIzJ-q-38" target="j8icnlEW-QXCDjUIzJ-q-18">
          <mxGeometry relative="1" as="geometry" />
        </mxCell>
        <mxCell id="j8icnlEW-QXCDjUIzJ-q-38" value="Пользователь существует" style="rhombus;whiteSpace=wrap;html=1;rounded=0;" vertex="1" parent="WIyWlLk6GJQsqaUBKTNV-1">
          <mxGeometry x="338" y="530" width="200" height="80" as="geometry" />
        </mxCell>
        <mxCell id="j8icnlEW-QXCDjUIzJ-q-42" value="Сообщить о неправильно введенных данных" style="shape=parallelogram;perimeter=parallelogramPerimeter;whiteSpace=wrap;html=1;fixedSize=1;" vertex="1" parent="WIyWlLk6GJQsqaUBKTNV-1">
          <mxGeometry x="70" y="540" width="199" height="60" as="geometry" />
        </mxCell>
        <mxCell id="j8icnlEW-QXCDjUIzJ-q-44" style="edgeStyle=orthogonalEdgeStyle;rounded=0;orthogonalLoop=1;jettySize=auto;html=1;entryX=0;entryY=0.5;entryDx=0;entryDy=0;exitX=0;exitY=0.5;exitDx=0;exitDy=0;" edge="1" parent="WIyWlLk6GJQsqaUBKTNV-1" source="j8icnlEW-QXCDjUIzJ-q-42" target="j8icnlEW-QXCDjUIzJ-q-1">
          <mxGeometry relative="1" as="geometry">
            <Array as="points">
              <mxPoint x="50" y="570" />
              <mxPoint x="50" y="140" />
            </Array>
          </mxGeometry>
        </mxCell>
      </root>
    </mxGraphModel>
  </diagram>
</mxfile>
